<?xml version="1.0" encoding="utf-8"?>
<!-- Generator: Adobe Illustrator 19.1.0, SVG Export Plug-In . SVG Version: 6.00 Build 0)  -->
<svg version="1.1" id="Layer_1" xmlns="http://www.w3.org/2000/svg" xmlns:xlink="http://www.w3.org/1999/xlink" x="0px" y="0px"
	 viewBox="0 0 223.9 62.5" style="enable-background:new 0 0 223.9 62.5;" xml:space="preserve">
<style type="text/css">
	.st0{fill:#D44E27;}
	.st1{fill:#373B44;}
</style>
<g>
	<polygon class="st0" points="72,20.9 72,23.5 72,30.8 77.7,25 77.7,20.9 	"/>
	<g>
		<path class="st1" d="M27.8,24.9c1.4-2.4,3.6-3.8,6.6-3.8v5.4c-4.1-0.4-6.6,1.8-6.6,5.2v9.6h-5.7V21.3h5.7V24.9z"/>
		<path class="st1" d="M56.5,31.2c0,6.1-4.3,10.2-10.7,10.2c-6.4,0-10.7-4.1-10.7-10.2c0-6.1,4.3-10.1,10.7-10.1
			C52.2,21.1,56.5,25.1,56.5,31.2z M40.9,31.3c0,3.3,2,5.5,5,5.5c2.9,0,5-2.2,5-5.5s-2-5.5-5-5.5C42.9,25.8,40.9,28.1,40.9,31.3z"/>
	</g>
	<g>
		<path class="st1" d="M115.2,41.2h-5.7v-2.9c-1.4,2-3.6,3.1-6.3,3.1c-5.7,0-9.4-4.1-9.4-10.3c0-6.1,3.7-10.1,9.3-10.1
			c2.8,0,5,1.1,6.4,3.1V13.7h5.7V41.2z M109.6,31.3c0-3.3-2-5.5-5-5.5c-3,0-5,2.3-5,5.5c0,3.3,2,5.5,5,5.5
			C107.5,36.8,109.6,34.6,109.6,31.3z"/>
		<path class="st1" d="M137.7,39.3c0,5.7-4.3,9.3-10.6,9.3c-3.4,0-6.4-1.1-8.7-2.6l2.1-4c1.8,1.3,3.9,2,6.2,2c3.3,0,5.3-1.7,5.3-4.4
			v-2.3c-1.3,1.9-3.4,2.9-6,2.9c-5.1,0-8.7-3.8-8.7-9.6c0-5.6,3.5-9.4,8.5-9.4c2.7,0,4.8,1,6.1,2.9v-2.7h5.7V39.3z M132.1,30.7
			c0-3.1-1.9-5.2-4.7-5.2c-2.8,0-4.7,2.1-4.7,5.2c0,3,1.9,5.1,4.7,5.1C130.2,35.8,132.1,33.7,132.1,30.7z"/>
		<path class="st1" d="M140.2,41.2V13.7h5.7v27.5H140.2z"/>
		<path class="st1" d="M161.3,38.9c-1.3,1.7-3.5,2.6-6.3,2.6c-4.3,0-6.8-2.6-6.8-6.2c0-3.7,2.7-6,7.6-6h5.5v-0.4
			c0-2.1-1.4-3.3-4.1-3.3c-1.8,0-3.8,0.6-5.9,1.7l-1.8-3.9c3-1.5,5.5-2.3,9-2.3c5.3,0,8.4,2.7,8.4,7.1l0,13h-5.6V38.9z M161.3,34.4
			v-1.8h-4.5c-2.2,0-3.3,0.7-3.3,2.3c0,1.5,1.2,2.5,3.1,2.5C159.1,37.4,161,36.1,161.3,34.4z"/>
		<path class="st1" d="M184.9,23.2l-2,3.9c-2.2-1.2-4.4-1.9-6.1-1.9c-1.3,0-2.3,0.4-2.3,1.5c0,3,10.5,1.5,10.5,8.5
			c0,4.1-3.6,6.2-8.1,6.2c-3.2,0-6.4-1-8.6-2.8l1.9-3.8c2.1,1.6,4.7,2.5,6.9,2.5c1.4,0,2.5-0.5,2.5-1.6c0-3.2-10.3-1.5-10.3-8.5
			c0-4.1,3.5-6.2,7.8-6.2C179.9,21,182.7,21.8,184.9,23.2z"/>
		<path class="st1" d="M201.9,23.2l-2,3.9c-2.2-1.2-4.4-1.9-6.1-1.9c-1.3,0-2.3,0.4-2.3,1.5c0,3,10.5,1.5,10.5,8.5
			c0,4.1-3.6,6.2-8.1,6.2c-3.2,0-6.4-1-8.6-2.8l1.9-3.8c2.1,1.6,4.7,2.5,6.9,2.5c1.4,0,2.5-0.5,2.5-1.6c0-3.2-10.3-1.5-10.3-8.5
			c0-4.1,3.5-6.2,7.8-6.2C196.9,21,199.7,21.8,201.9,23.2z"/>
	</g>
	<path class="st1" d="M63.7,41c-1.7-0.3-3.3-1.6-4.3-3c-0.9-1.2-1.1-2.5-1.1-4V21.8c0-0.3,0.2-0.5,0.5-0.5h4.7
		c0.3,0,0.5,0.2,0.5,0.5v10.3c0,4.4,2.6,3.7,3.5,2.5l11.1-11.4c4-4.1,13.2-2.2,13.2,4.2v13.1c0,0.3-0.2,0.5-0.5,0.5h-4.6
		c-0.3,0-0.5-0.2-0.5-0.5V30c0-3.4-2.3-4.8-4.7-2.4L70.3,39.2C68.6,41,66.2,41.5,63.7,41z"/>
	<polygon class="st1" points="77.7,41.5 77.7,36.9 77.7,24.3 72,30.1 72,41.5 	"/>
</g>
</svg>
